<svg width="1562" height="432" viewBox="0 0 1562 432" fill="none" xmlns="http://www.w3.org/2000/svg">
<path d="M210.24 141.872C228.672 141.872 243.648 147.728 255.168 159.44C266.88 170.96 272.736 187.76 272.736 209.84V302H252.864V212.144C252.864 195.056 248.736 182 240.48 172.976C232.224 163.952 220.992 159.44 206.784 159.44C192 159.44 180.192 164.336 171.36 174.128C162.528 183.92 158.112 198.128 158.112 216.752V302H138.24V212.144C138.24 195.056 134.112 182 125.856 172.976C117.6 163.952 106.272 159.44 91.872 159.44C77.088 159.44 65.28 164.336 56.448 174.128C47.616 183.92 43.2 198.128 43.2 216.752V302H23.04V144.752H43.2V171.824C48.192 162.032 55.296 154.64 64.512 149.648C73.728 144.464 84 141.872 95.328 141.872C108.96 141.872 120.864 145.136 131.04 151.664C141.408 158.192 148.896 167.792 153.504 180.464C157.728 167.984 164.928 158.48 175.104 151.952C185.472 145.232 197.184 141.872 210.24 141.872ZM459.781 215.024C459.781 221.744 459.589 226.928 459.205 230.576H328.741C329.125 242.48 331.909 252.752 337.093 261.392C342.469 269.84 349.381 276.272 357.829 280.688C366.277 285.104 375.493 287.312 385.477 287.312C398.533 287.312 409.477 284.144 418.309 277.808C427.333 271.472 433.285 262.928 436.165 252.176H457.477C453.637 267.536 445.381 280.112 432.709 289.904C420.229 299.504 404.485 304.304 385.477 304.304C370.693 304.304 357.445 301.04 345.733 294.512C334.021 287.792 324.805 278.384 318.085 266.288C311.557 254 308.293 239.696 308.293 223.376C308.293 207.056 311.557 192.752 318.085 180.464C324.613 168.176 333.733 158.768 345.445 152.24C357.157 145.712 370.501 142.448 385.477 142.448C400.453 142.448 413.509 145.712 424.645 152.24C435.973 158.576 444.613 167.312 450.565 178.448C456.709 189.584 459.781 201.776 459.781 215.024ZM439.333 215.6C439.525 203.696 437.125 193.52 432.133 185.072C427.333 176.624 420.709 170.288 412.261 166.064C403.813 161.84 394.597 159.728 384.613 159.728C374.821 159.728 365.797 161.84 357.541 166.064C349.285 170.288 342.565 176.624 337.381 185.072C332.197 193.52 329.317 203.696 328.741 215.6H439.333ZM487.449 223.088C487.449 206.96 490.713 192.848 497.241 180.752C503.769 168.464 512.697 159.056 524.025 152.528C535.545 145.808 548.505 142.448 562.905 142.448C576.729 142.448 589.209 145.808 600.345 152.528C611.481 159.248 619.641 167.984 624.825 178.736V88.88H644.985V302H624.825V266.864C620.025 277.808 612.153 286.832 601.209 293.936C590.265 300.848 577.401 304.304 562.617 304.304C548.217 304.304 535.257 300.944 523.737 294.224C512.409 287.504 503.481 278 496.953 265.712C490.617 253.424 487.449 239.216 487.449 223.088ZM624.825 223.376C624.825 210.704 622.233 199.568 617.049 189.968C611.865 180.368 604.761 172.976 595.737 167.792C586.905 162.608 577.113 160.016 566.361 160.016C555.225 160.016 545.241 162.512 536.409 167.504C527.577 172.496 520.569 179.792 515.385 189.392C510.393 198.8 507.897 210.032 507.897 223.088C507.897 235.952 510.393 247.28 515.385 257.072C520.569 266.672 527.577 274.064 536.409 279.248C545.241 284.24 555.225 286.736 566.361 286.736C577.113 286.736 586.905 284.144 595.737 278.96C604.761 273.776 611.865 266.384 617.049 256.784C622.233 247.184 624.825 236.048 624.825 223.376ZM701.089 115.088C697.057 115.088 693.601 113.648 690.721 110.768C687.841 107.888 686.401 104.336 686.401 100.112C686.401 95.888 687.841 92.432 690.721 89.744C693.601 86.864 697.057 85.424 701.089 85.424C705.121 85.424 708.577 86.864 711.457 89.744C714.337 92.432 715.777 95.888 715.777 100.112C715.777 104.336 714.337 107.888 711.457 110.768C708.577 113.648 705.121 115.088 701.089 115.088ZM711.169 144.752V302H691.009V144.752H711.169ZM747.605 223.088C747.605 206.96 750.773 192.848 757.109 180.752C763.637 168.464 772.565 159.056 783.893 152.528C795.413 145.808 808.373 142.448 822.773 142.448C837.749 142.448 850.613 145.904 861.365 152.816C872.309 159.728 880.181 168.56 884.981 179.312V144.752H905.141V302H884.981V267.152C879.989 277.904 872.021 286.832 861.077 293.936C850.325 300.848 837.461 304.304 822.485 304.304C808.277 304.304 795.413 300.944 783.893 294.224C772.565 287.504 763.637 278 757.109 265.712C750.773 253.424 747.605 239.216 747.605 223.088ZM884.981 223.376C884.981 210.704 882.389 199.568 877.205 189.968C872.021 180.368 864.917 172.976 855.893 167.792C847.061 162.608 837.269 160.016 826.517 160.016C815.381 160.016 805.397 162.512 796.565 167.504C787.733 172.496 780.725 179.792 775.541 189.392C770.549 198.8 768.053 210.032 768.053 223.088C768.053 235.952 770.549 247.28 775.541 257.072C780.725 266.672 787.733 274.064 796.565 279.248C805.397 284.24 815.381 286.736 826.517 286.736C837.269 286.736 847.061 284.144 855.893 278.96C864.917 273.776 872.021 266.384 877.205 256.784C882.389 247.184 884.981 236.048 884.981 223.376ZM995.229 164.048C999.837 156.56 1006.46 150.512 1015.1 145.904C1023.74 141.296 1033.63 138.992 1044.77 138.992C1058.01 138.992 1070.01 142.352 1080.76 149.072C1091.52 155.792 1099.97 165.392 1106.11 177.872C1112.45 190.352 1115.61 204.848 1115.61 221.36C1115.61 237.872 1112.45 252.464 1106.11 265.136C1099.97 277.616 1091.52 287.312 1080.76 294.224C1070.01 300.944 1058.01 304.304 1044.77 304.304C1033.44 304.304 1023.55 302.096 1015.1 297.68C1006.65 293.072 1000.03 287.024 995.229 279.536V302H945.981V88.88H995.229V164.048ZM1065.5 221.36C1065.5 209.072 1062.05 199.472 1055.13 192.56C1048.41 185.456 1040.06 181.904 1030.08 181.904C1020.29 181.904 1011.93 185.456 1005.02 192.56C998.301 199.664 994.941 209.36 994.941 221.648C994.941 233.936 998.301 243.632 1005.02 250.736C1011.93 257.84 1020.29 261.392 1030.08 261.392C1039.87 261.392 1048.22 257.84 1055.13 250.736C1062.05 243.44 1065.5 233.648 1065.5 221.36ZM1190.7 88.88V302H1141.45V88.88H1190.7ZM1299.54 304.304C1283.8 304.304 1269.59 300.944 1256.92 294.224C1244.44 287.504 1234.55 277.904 1227.25 265.424C1220.15 252.944 1216.6 238.352 1216.6 221.648C1216.6 205.136 1220.24 190.64 1227.54 178.16C1234.84 165.488 1244.82 155.792 1257.49 149.072C1270.16 142.352 1284.37 138.992 1300.12 138.992C1315.86 138.992 1330.07 142.352 1342.74 149.072C1355.41 155.792 1365.4 165.488 1372.69 178.16C1379.99 190.64 1383.64 205.136 1383.64 221.648C1383.64 238.16 1379.89 252.752 1372.4 265.424C1365.11 277.904 1355.03 287.504 1342.16 294.224C1329.49 300.944 1315.28 304.304 1299.54 304.304ZM1299.54 261.968C1308.95 261.968 1316.92 258.512 1323.44 251.6C1330.16 244.496 1333.52 234.512 1333.52 221.648C1333.52 208.784 1330.26 198.896 1323.73 191.984C1317.4 184.88 1309.52 181.328 1300.12 181.328C1290.52 181.328 1282.55 184.784 1276.21 191.696C1269.88 198.608 1266.71 208.592 1266.71 221.648C1266.71 234.512 1269.78 244.496 1275.92 251.6C1282.26 258.512 1290.13 261.968 1299.54 261.968ZM1504.8 302L1473.99 257.36L1448.07 302H1394.79L1447.78 219.92L1393.35 141.296H1448.64L1479.46 185.648L1505.38 141.296H1558.66L1504.8 222.224L1560.1 302H1504.8Z" fill="#333333"/>
<rect x="136" y="352" width="240.672" height="13" fill="#259FE6"/>
<rect x="398.332" y="352" width="240.672" height="13" fill="#13BA93"/>
<rect x="660.664" y="352" width="240.672" height="13" fill="#F54E59"/>
<rect x="922.996" y="352" width="240.672" height="13" fill="#FA7837"/>
<rect x="1185.33" y="352" width="240.672" height="13" fill="#7F70E0"/>
</svg>
